<svg width="200" height="144" fill="none" xmlns="http://www.w3.org/2000/svg"><g clip-path="url(#a)"><rect width="200" height="144" rx="4" fill="#F7F8F9"/><g filter="url(#b)"><g clip-path="url(#c)"><path d="M24 44h176v96a4 4 0 0 1-4 4H24V44Z" fill="#F7F8F9"/><g clip-path="url(#d)" filter="url(#e)"><path fill="#fff" d="M24 44h183v32H24z"/><g clip-path="url(#f)"><path d="M81.806 61.528c0-1.285-.69-1.894-2.61-2.313-1.07-.23-1.327-.474-1.327-.812 0-.42.38-.609 1.083-.609.852 0 1.69.258 2.489.623v-1.691c-.555-.284-1.42-.5-2.435-.5-1.908 0-2.895.824-2.895 2.19 0 1.083.5 1.949 2.475 2.328 1.177.243 1.42.433 1.42.825 0 .379-.243.622-1.081.622-.961 0-2.11-.325-2.855-.77v1.771c.595.298 1.38.623 2.841.623 2.07 0 2.895-.92 2.895-2.287ZM102.613 56.333v7.373h1.569v-5.614l.663 1.488 2.219 4.126h1.975v-7.373h-1.569v4.762l-.595-1.38-1.786-3.382h-2.476ZM92.643 56.333h-1.718v7.36h1.718v-7.36ZM88.936 61.528c0-1.285-.69-1.894-2.611-2.313-1.069-.23-1.326-.474-1.326-.812 0-.42.379-.609 1.082-.609.852 0 1.691.258 2.49.623v-1.691c-.555-.284-1.421-.5-2.436-.5-1.907 0-2.895.824-2.895 2.19 0 1.083.5 1.949 2.476 2.328 1.177.243 1.42.433 1.42.825 0 .379-.243.622-1.082.622-.96 0-2.11-.325-2.854-.77v1.771c.595.298 1.38.623 2.84.623 2.084 0 2.896-.92 2.896-2.287ZM62.799 56.333v7.373h3.517l.555-1.596h-2.354v-5.777h-1.718ZM55.831 56.334v1.596h1.908v5.777h1.718V57.93H61.5v-1.596H55.83ZM53.328 56.334H51.07l-2.57 7.36h1.961l.365-1.245c.433.121.893.203 1.38.203.474 0 .934-.068 1.38-.203l.366 1.244h1.961l-2.584-7.36Zm-1.136 4.802c-.325 0-.65-.054-.947-.135l.947-3.22.947 3.22a3.557 3.557 0 0 1-.947.135ZM72.403 56.333h-2.259l-2.57 7.36h1.961l.366-1.245c.433.122.893.203 1.38.203.473 0 .933-.068 1.38-.203l.365 1.245h1.961l-2.584-7.36Zm-1.136 4.803c-.325 0-.65-.054-.947-.135l.947-3.22.947 3.22a3.642 3.642 0 0 1-.947.135ZM98.81 56.333h-2.258l-2.57 7.36h1.96l.366-1.245c.433.122.893.203 1.38.203.474 0 .933-.068 1.38-.203l.365 1.245h1.962l-2.584-7.36Zm-1.122 4.803c-.325 0-.65-.054-.947-.135l.947-3.22.947 3.22a3.727 3.727 0 0 1-.947.135Z" fill="#44546F"/><path d="M38.65 58.89c-.135-.149-.338-.135-.433.04l-2.191 4.397c-.082.176.04.38.23.38h3.057a.25.25 0 0 0 .23-.15c.663-1.366.257-3.436-.893-4.667Z" fill="url(#g)"/><path d="M40.26 54.886c-1.23 1.948-1.15 4.099-.338 5.722.812 1.623 1.434 2.855 1.475 2.95a.25.25 0 0 0 .23.148h3.057c.19 0 .325-.203.23-.379 0 0-4.112-8.225-4.22-8.428-.082-.19-.312-.203-.433-.014Z" fill="#8993A5"/></g><rect x="124" y="56" width="36" height="8" rx="4" fill="#DCDFE4"/><rect x="168" y="56" width="44" height="8" rx="4" fill="#DCDFE4"/></g><path d="M24 28a4 4 0 0 1 4-4h172v20.336H24V28Z" fill="#F1F2F4"/><ellipse cx="36" cy="34.168" rx="4" ry="4.067" fill="#B3B9C4"/><ellipse cx="48" cy="34.168" rx="4" ry="4.067" fill="#B3B9C4"/><ellipse cx="60" cy="34.168" rx="4" ry="4.067" fill="#B3B9C4"/></g></g></g><defs><clipPath id="a"><path fill="#fff" d="M0 0h200v144H0z"/></clipPath><clipPath id="c"><path d="M24 28a4 4 0 0 1 4-4h172v120H24V28Z" fill="#fff"/></clipPath><clipPath id="d"><path fill="#fff" transform="translate(24 44)" d="M0 0h183v32H0z"/></clipPath><clipPath id="f"><path fill="#fff" transform="translate(36 54)" d="M0 0h73.5v12H0z"/></clipPath><filter id="b" x="12" y="20" width="200" height="144" filterUnits="userSpaceOnUse" color-interpolation-filters="sRGB"><feFlood flood-opacity="0" result="BackgroundImageFix"/><feColorMatrix in="SourceAlpha" values="0 0 0 0 0 0 0 0 0 0 0 0 0 0 0 0 0 0 127 0" result="hardAlpha"/><feOffset dy="8"/><feGaussianBlur stdDeviation="6"/><feColorMatrix values="0 0 0 0 0.0352941 0 0 0 0 0.117647 0 0 0 0 0.258824 0 0 0 0.15 0"/><feBlend in2="BackgroundImageFix" result="effect1_dropShadow_2159_4301"/><feColorMatrix in="SourceAlpha" values="0 0 0 0 0 0 0 0 0 0 0 0 0 0 0 0 0 0 127 0" result="hardAlpha"/><feOffset/><feGaussianBlur stdDeviation=".5"/><feColorMatrix values="0 0 0 0 0.0352941 0 0 0 0 0.117647 0 0 0 0 0.258824 0 0 0 0.31 0"/><feBlend in2="effect1_dropShadow_2159_4301" result="effect2_dropShadow_2159_4301"/><feBlend in="SourceGraphic" in2="effect2_dropShadow_2159_4301" result="shape"/></filter><filter id="e" x="24" y="44" width="183" height="32" filterUnits="userSpaceOnUse" color-interpolation-filters="sRGB"><feFlood flood-opacity="0" result="BackgroundImageFix"/><feBlend in="SourceGraphic" in2="BackgroundImageFix" result="shape"/><feColorMatrix in="SourceAlpha" values="0 0 0 0 0 0 0 0 0 0 0 0 0 0 0 0 0 0 127 0" result="hardAlpha"/><feOffset dy="-1"/><feComposite in2="hardAlpha" operator="arithmetic" k2="-1" k3="1"/><feColorMatrix values="0 0 0 0 0.921569 0 0 0 0 0.92549 0 0 0 0 0.941176 0 0 0 1 0"/><feBlend in2="shape" result="effect1_innerShadow_2159_4301"/></filter><linearGradient id="g" x1="39.85" y1="59.562" x2="37.533" y2="63.576" gradientUnits="userSpaceOnUse"><stop stop-color="#44546F"/><stop offset=".923" stop-color="#8993A5"/></linearGradient></defs></svg>